<svg width="229" height="47" viewBox="0 0 229 47" fill="none" xmlns="http://www.w3.org/2000/svg">
<path d="M73.2453 36.6L70.5453 32.97C69.7453 33.13 68.9653 33.21 68.2053 33.21C66.2253 33.21 64.4053 32.75 62.7453 31.83C61.1053 30.91 59.7953 29.63 58.8153 27.99C57.8553 26.33 57.3753 24.47 57.3753 22.41C57.3753 20.35 57.8553 18.5 58.8153 16.86C59.7953 15.22 61.1053 13.94 62.7453 13.02C64.4053 12.1 66.2253 11.64 68.2053 11.64C70.1853 11.64 71.9953 12.1 73.6353 13.02C75.2953 13.94 76.5953 15.22 77.5353 16.86C78.4953 18.5 78.9753 20.35 78.9753 22.41C78.9753 24.21 78.6053 25.86 77.8653 27.36C77.1453 28.84 76.1353 30.07 74.8353 31.05L79.4553 36.6H73.2453ZM62.6253 22.41C62.6253 24.27 63.1253 25.76 64.1253 26.88C65.1453 27.98 66.5053 28.53 68.2053 28.53C69.8853 28.53 71.2253 27.97 72.2253 26.85C73.2453 25.73 73.7553 24.25 73.7553 22.41C73.7553 20.55 73.2453 19.07 72.2253 17.97C71.2253 16.85 69.8853 16.29 68.2053 16.29C66.5053 16.29 65.1453 16.84 64.1253 17.94C63.1253 19.04 62.6253 20.53 62.6253 22.41ZM99.0178 16.26V33H93.8878V30.72C93.3678 31.46 92.6578 32.06 91.7578 32.52C90.8778 32.96 89.8978 33.18 88.8178 33.18C87.5378 33.18 86.4078 32.9 85.4278 32.34C84.4478 31.76 83.6878 30.93 83.1478 29.85C82.6078 28.77 82.3378 27.5 82.3378 26.04V16.26H87.4378V25.35C87.4378 26.47 87.7278 27.34 88.3078 27.96C88.8878 28.58 89.6678 28.89 90.6478 28.89C91.6478 28.89 92.4378 28.58 93.0178 27.96C93.5978 27.34 93.8878 26.47 93.8878 25.35V16.26H99.0178ZM105.883 14.52C104.983 14.52 104.243 14.26 103.663 13.74C103.103 13.2 102.823 12.54 102.823 11.76C102.823 10.96 103.103 10.3 103.663 9.78C104.243 9.24 104.983 8.97 105.883 8.97C106.763 8.97 107.483 9.24 108.043 9.78C108.623 10.3 108.913 10.96 108.913 11.76C108.913 12.54 108.623 13.2 108.043 13.74C107.483 14.26 106.763 14.52 105.883 14.52ZM108.433 16.26V33H103.303V16.26H108.433ZM117.55 28.77H124.81V33H111.82V28.92L118.78 20.49H111.88V16.26H124.66V20.34L117.55 28.77ZM127.213 24.63C127.213 22.89 127.563 21.37 128.263 20.07C128.983 18.77 129.973 17.77 131.233 17.07C132.513 16.37 133.973 16.02 135.613 16.02C137.713 16.02 139.463 16.57 140.863 17.67C142.283 18.77 143.213 20.32 143.653 22.32H138.193C137.733 21.04 136.843 20.4 135.523 20.4C134.583 20.4 133.833 20.77 133.273 21.51C132.713 22.23 132.433 23.27 132.433 24.63C132.433 25.99 132.713 27.04 133.273 27.78C133.833 28.5 134.583 28.86 135.523 28.86C136.843 28.86 137.733 28.22 138.193 26.94H143.653C143.213 28.9 142.283 30.44 140.863 31.56C139.443 32.68 137.693 33.24 135.613 33.24C133.973 33.24 132.513 32.89 131.233 32.19C129.973 31.49 128.983 30.49 128.263 29.19C127.563 27.89 127.213 26.37 127.213 24.63ZM149.577 14.52C148.677 14.52 147.937 14.26 147.357 13.74C146.797 13.2 146.517 12.54 146.517 11.76C146.517 10.96 146.797 10.3 147.357 9.78C147.937 9.24 148.677 8.97 149.577 8.97C150.457 8.97 151.177 9.24 151.737 9.78C152.317 10.3 152.607 10.96 152.607 11.76C152.607 12.54 152.317 13.2 151.737 13.74C151.177 14.26 150.457 14.52 149.577 14.52ZM152.127 16.26V33H146.997V16.26H152.127ZM161.575 18.63C162.075 17.85 162.765 17.22 163.645 16.74C164.525 16.26 165.555 16.02 166.735 16.02C168.115 16.02 169.365 16.37 170.485 17.07C171.605 17.77 172.485 18.77 173.125 20.07C173.785 21.37 174.115 22.88 174.115 24.6C174.115 26.32 173.785 27.84 173.125 29.16C172.485 30.46 171.605 31.47 170.485 32.19C169.365 32.89 168.115 33.24 166.735 33.24C165.575 33.24 164.545 33 163.645 32.52C162.765 32.04 162.075 31.42 161.575 30.66V40.98H156.445V16.26H161.575V18.63ZM168.895 24.6C168.895 23.32 168.535 22.32 167.815 21.6C167.115 20.86 166.245 20.49 165.205 20.49C164.185 20.49 163.315 20.86 162.595 21.6C161.895 22.34 161.545 23.35 161.545 24.63C161.545 25.91 161.895 26.92 162.595 27.66C163.315 28.4 164.185 28.77 165.205 28.77C166.225 28.77 167.095 28.4 167.815 27.66C168.535 26.9 168.895 25.88 168.895 24.6ZM187.696 16.08C189.616 16.08 191.156 16.72 192.316 18C193.476 19.26 194.056 21 194.056 23.22V33H188.956V23.91C188.956 22.79 188.666 21.92 188.086 21.3C187.506 20.68 186.726 20.37 185.746 20.37C184.766 20.37 183.986 20.68 183.406 21.3C182.826 21.92 182.536 22.79 182.536 23.91V33H177.406V10.8H182.536V18.51C183.056 17.77 183.766 17.18 184.666 16.74C185.566 16.3 186.576 16.08 187.696 16.08ZM214.001 24.36C214.001 24.84 213.971 25.34 213.911 25.86H202.301C202.381 26.9 202.711 27.7 203.291 28.26C203.891 28.8 204.621 29.07 205.481 29.07C206.761 29.07 207.651 28.53 208.151 27.45H213.611C213.331 28.55 212.821 29.54 212.081 30.42C211.361 31.3 210.451 31.99 209.351 32.49C208.251 32.99 207.021 33.24 205.661 33.24C204.021 33.24 202.561 32.89 201.281 32.19C200.001 31.49 199.001 30.49 198.281 29.19C197.561 27.89 197.201 26.37 197.201 24.63C197.201 22.89 197.551 21.37 198.251 20.07C198.971 18.77 199.971 17.77 201.251 17.07C202.531 16.37 204.001 16.02 205.661 16.02C207.281 16.02 208.721 16.36 209.981 17.04C211.241 17.72 212.221 18.69 212.921 19.95C213.641 21.21 214.001 22.68 214.001 24.36ZM208.751 23.01C208.751 22.13 208.451 21.43 207.851 20.91C207.251 20.39 206.501 20.13 205.601 20.13C204.741 20.13 204.011 20.38 203.411 20.88C202.831 21.38 202.471 22.09 202.331 23.01H208.751ZM222.437 19.05C223.037 18.13 223.787 17.41 224.687 16.89C225.587 16.35 226.587 16.08 227.687 16.08V21.51H226.277C224.997 21.51 224.037 21.79 223.397 22.35C222.757 22.89 222.437 23.85 222.437 25.23V33H217.307V16.26H222.437V19.05Z" fill="#1935CA"/>
<circle cx="23.4541" cy="23.4541" r="23.4541" fill="#1935CA"/>
<g clip-path="url(#clip0_205_36)">
<path d="M22.4011 13.3601C23.9814 10.9376 27.737 11.9339 27.9085 14.8212L28.3027 21.4566C28.3271 21.8672 28.4357 22.2683 28.6217 22.6352L31.6273 28.5639C32.9351 31.1437 30.1945 33.898 27.6082 32.6029L21.6647 29.6266C21.2969 29.4425 20.8952 29.3359 20.4846 29.3135L13.8473 28.9521C10.9592 28.7948 9.94427 25.0442 12.359 23.452L17.9083 19.7929C18.2516 19.5665 18.5448 19.2719 18.7695 18.9274L22.4011 13.3601Z" fill="white"/>
</g>
<defs>
<clipPath id="clip0_205_36">
<rect width="29" height="29" fill="white" transform="translate(9 10)"/>
</clipPath>
</defs>
</svg>
